<svg width="51" height="40" viewBox="0 0 51 40" fill="none" xmlns="http://www.w3.org/2000/svg">
  <rect width="51" height="40" rx="2.13" fill="white"/>
  <rect x="0.5" y="0.5" width="50" height="39" rx="1.63" stroke="#9DADBC" stroke-opacity="0.36"/>
  <g clip-path="url(#clip0_401_14)">
    <path d="M40.0925 16.8916C39.5579 20.7983 36.1684 24.2634 34.6169 25.41C36.5403 24.8638 38.3687 24.5926 40.0925 24.5268V16.8916Z" fill="#EE2F43"/>
    <path d="M46 25.102C42.4516 20.9881 40.8924 15.8244 40.7084 12.673V24.5132C42.6163 24.4939 44.3866 24.7244 46 25.104V25.102Z" fill="#016B4F"/>
    <path d="M6.62503 18.598H5.03485C5.02323 18.5418 5.01548 18.4798 5.00967 18.4101C5.00386 18.3423 5.00192 18.2765 5.00192 18.2145C5.00192 18.1525 5.00386 18.0886 5.00967 18.0227C5.01548 17.9569 5.02323 17.8968 5.03485 17.8407H9.08488C9.0965 17.8968 9.10425 17.9569 9.11006 18.0188C9.11587 18.0808 9.11781 18.1428 9.11781 18.2067C9.11781 18.2706 9.11393 18.3365 9.11006 18.4062C9.10425 18.4779 9.0965 18.5418 9.08488 18.598H7.49276V23.9593C7.36299 23.9767 7.21966 23.9845 7.06664 23.9845C6.91363 23.9845 6.76062 23.9767 6.62503 23.9593V18.598Z" fill="#231F20"/>
    <path d="M11.6881 21.083C11.6881 20.7479 11.6028 20.5155 11.4324 20.3857C11.262 20.256 11.016 20.1901 10.6925 20.1901C10.493 20.1901 10.309 20.2056 10.1347 20.2366C9.96231 20.2676 9.7938 20.3083 9.62916 20.3606C9.5207 20.1727 9.4684 19.9499 9.4684 19.6885C9.66209 19.6265 9.87321 19.5781 10.1056 19.5432C10.3381 19.5083 10.5627 19.4928 10.7777 19.4928C11.3452 19.4928 11.7752 19.6226 12.0716 19.8802C12.366 20.1378 12.5132 20.5504 12.5132 21.1179V23.8489C12.3137 23.8934 12.0735 23.9419 11.7907 23.9903C11.5079 24.0387 11.2174 24.0619 10.923 24.0619C10.6441 24.0619 10.3942 24.0368 10.1696 23.9845C9.94487 23.9341 9.75506 23.8508 9.60011 23.7385C9.44322 23.6242 9.32313 23.4809 9.23791 23.3046C9.15269 23.1284 9.11008 22.9153 9.11008 22.6674C9.11008 22.4195 9.16044 22.2103 9.25922 22.0243C9.358 21.8403 9.49358 21.6873 9.66403 21.5653C9.83447 21.4433 10.0301 21.3522 10.2509 21.2922C10.4717 21.2322 10.7041 21.2031 10.9482 21.2031C11.1302 21.2031 11.2794 21.207 11.3956 21.2167C11.5118 21.2244 11.6106 21.236 11.69 21.2457V21.0849L11.6881 21.083ZM11.6881 21.9081C11.6028 21.8965 11.4944 21.8849 11.3646 21.8733C11.2348 21.8616 11.1225 21.8558 11.0334 21.8558C10.6809 21.8558 10.4136 21.9217 10.2296 22.0515C10.0456 22.1812 9.95262 22.3807 9.95262 22.648C9.95262 22.8185 9.98361 22.9521 10.0456 23.047C10.1076 23.1439 10.185 23.2175 10.28 23.2678C10.3749 23.3182 10.4775 23.3492 10.5899 23.3608C10.7041 23.3724 10.8107 23.3782 10.9133 23.3782C11.0431 23.3782 11.1787 23.3705 11.3181 23.3569C11.4576 23.3434 11.5796 23.3221 11.6881 23.293V21.9062V21.9081Z" fill="#231F20"/>
    <path d="M13.747 17.7225C13.809 17.7109 13.8787 17.7031 13.9562 17.6973C14.0336 17.6915 14.1014 17.6896 14.1653 17.6896C14.2293 17.6896 14.299 17.6934 14.3784 17.6973C14.4578 17.7031 14.5295 17.7109 14.5915 17.7225V23.9593C14.5295 23.9709 14.4578 23.9786 14.3784 23.9844C14.299 23.9903 14.2273 23.9922 14.1653 23.9922C14.1034 23.9922 14.0336 23.9883 13.9562 23.9844C13.8787 23.9786 13.8109 23.9709 13.747 23.9593V17.7225ZM14.82 21.697L16.2068 19.5955C16.2804 19.5838 16.354 19.5761 16.4276 19.5703C16.5012 19.5645 16.5787 19.5625 16.6581 19.5625C16.7433 19.5625 16.8247 19.5664 16.9002 19.5703C16.9777 19.5761 17.0552 19.5838 17.1346 19.5955L15.7478 21.6369L17.3728 23.9593C17.2934 23.9709 17.2159 23.9786 17.1423 23.9844C17.0687 23.9903 16.9913 23.9922 16.9119 23.9922C16.8324 23.9922 16.753 23.9883 16.6736 23.9844C16.5942 23.9786 16.5148 23.9709 16.4354 23.9593L14.8181 21.695L14.82 21.697Z" fill="#231F20"/>
    <path d="M20.4176 21.083C20.4176 20.7479 20.3324 20.5155 20.1619 20.3857C19.9915 20.256 19.7455 20.1901 19.4221 20.1901C19.2226 20.1901 19.0385 20.2056 18.8642 20.2366C18.6918 20.2676 18.5233 20.3083 18.3587 20.3606C18.2502 20.1727 18.1979 19.9499 18.1979 19.6885C18.3916 19.6265 18.6027 19.5781 18.8352 19.5432C19.0676 19.5083 19.2923 19.4928 19.5073 19.4928C20.0748 19.4928 20.5048 19.6226 20.8011 19.8802C21.0955 20.1378 21.2427 20.5504 21.2427 21.1179V23.8489C21.0432 23.8934 20.803 23.9419 20.5203 23.9903C20.2375 24.0387 19.9469 24.0619 19.6525 24.0619C19.3736 24.0619 19.1238 24.0368 18.8991 23.9845C18.6744 23.9341 18.4846 23.8508 18.3296 23.7385C18.1728 23.6242 18.0527 23.4809 17.9674 23.3046C17.8822 23.1284 17.8396 22.9153 17.8396 22.6674C17.8396 22.4195 17.89 22.2103 17.9888 22.0243C18.0875 21.8403 18.2231 21.6873 18.3936 21.5653C18.564 21.4433 18.7596 21.3522 18.9804 21.2922C19.2012 21.2322 19.4337 21.2031 19.6777 21.2031C19.8598 21.2031 20.0089 21.207 20.1251 21.2167C20.2414 21.2244 20.3401 21.236 20.4195 21.2457V21.0849L20.4176 21.083ZM20.4176 21.9081C20.3324 21.8965 20.2239 21.8849 20.0942 21.8733C19.9644 21.8616 19.852 21.8558 19.7629 21.8558C19.4104 21.8558 19.1431 21.9217 18.9591 22.0515C18.7751 22.1812 18.6822 22.3807 18.6822 22.648C18.6822 22.8185 18.7132 22.9521 18.7751 23.047C18.8371 23.1439 18.9146 23.2175 19.0095 23.2678C19.1044 23.3182 19.2071 23.3492 19.3194 23.3608C19.4337 23.3724 19.5402 23.3782 19.6429 23.3782C19.7726 23.3782 19.9082 23.3705 20.0477 23.3569C20.1871 23.3434 20.3091 23.3221 20.4176 23.293V21.9062V21.9081Z" fill="#231F20"/>
    <path d="M22.5792 17.8329C22.6644 17.8213 22.7651 17.8097 22.8813 17.7981C22.9975 17.7864 23.1196 17.7767 23.2474 17.769C23.3752 17.7613 23.5031 17.7535 23.6309 17.7477C23.7587 17.7419 23.8827 17.7399 24.0009 17.7399C24.3127 17.7399 24.609 17.7709 24.8899 17.8329C25.1707 17.8949 25.4167 18.0034 25.6298 18.1564C25.8428 18.3094 26.0113 18.5128 26.1353 18.7646C26.2593 19.0164 26.3232 19.334 26.3232 19.7136C26.3232 20.0933 26.2573 20.4419 26.1237 20.7053C25.99 20.9687 25.8138 21.1799 25.5968 21.3387C25.378 21.4975 25.1301 21.6098 24.8531 21.6757C24.5742 21.7416 24.2914 21.7745 24.0028 21.7745C23.8943 21.7745 23.7994 21.7745 23.7181 21.7706C23.6367 21.7687 23.5457 21.7609 23.4508 21.7493V23.9612C23.3152 23.9787 23.1699 23.9864 23.0169 23.9864C22.9491 23.9864 22.8775 23.9864 22.8 23.9825C22.7225 23.9787 22.6508 23.9728 22.5831 23.9612V17.8329H22.5792ZM23.4469 20.99C23.5379 21.0017 23.6173 21.0094 23.6851 21.0152C23.7529 21.021 23.8517 21.023 23.9834 21.023C24.1597 21.023 24.334 21.0055 24.5064 20.9668C24.6788 20.93 24.8337 20.8641 24.9693 20.7673C25.1049 20.6705 25.2153 20.5387 25.2966 20.3722C25.378 20.2056 25.4206 19.9887 25.4206 19.7214C25.4206 19.489 25.3857 19.2933 25.3141 19.1345C25.2424 18.9757 25.1456 18.8478 25.0197 18.751C24.8957 18.6542 24.7446 18.5864 24.5684 18.5476C24.3921 18.5089 24.2023 18.4876 23.9989 18.4876C23.7955 18.4876 23.6038 18.4953 23.445 18.5128V20.9881L23.4469 20.99Z" fill="#231F20"/>
    <path d="M29.5055 21.083C29.5055 20.7479 29.4203 20.5155 29.2498 20.3857C29.0794 20.256 28.8334 20.1901 28.5099 20.1901C28.3104 20.1901 28.1264 20.2056 27.9521 20.2366C27.7797 20.2676 27.6112 20.3083 27.4466 20.3606C27.3381 20.1727 27.2858 19.9499 27.2858 19.6885C27.4795 19.6265 27.6906 19.5781 27.923 19.5432C28.1555 19.5083 28.3802 19.4928 28.5951 19.4928C29.1627 19.4928 29.5926 19.6226 29.889 19.8802C30.1834 20.1378 30.3306 20.5504 30.3306 21.1179V23.8489C30.1311 23.8934 29.8909 23.9419 29.6081 23.9903C29.3254 24.0387 29.0348 24.0619 28.7404 24.0619C28.4615 24.0619 28.2116 24.0368 27.987 23.9845C27.7623 23.9322 27.5725 23.8508 27.4175 23.7385C27.2606 23.6242 27.1405 23.4809 27.0553 23.3046C26.9701 23.1284 26.9275 22.9153 26.9275 22.6674C26.9275 22.4195 26.9779 22.2103 27.0766 22.0243C27.1754 21.8403 27.311 21.6873 27.4814 21.5653C27.6519 21.4433 27.8475 21.3522 28.0683 21.2922C28.2891 21.2322 28.5215 21.2031 28.7656 21.2031C28.9477 21.2031 29.0968 21.207 29.213 21.2167C29.3292 21.2263 29.428 21.236 29.5074 21.2457V21.0849L29.5055 21.083ZM29.5055 21.9081C29.4203 21.8965 29.3118 21.8849 29.182 21.8733C29.0523 21.8616 28.9399 21.8558 28.8508 21.8558C28.4983 21.8558 28.231 21.9217 28.047 22.0515C27.863 22.1812 27.77 22.3807 27.77 22.648C27.77 22.8185 27.801 22.9521 27.863 23.047C27.925 23.1439 28.0025 23.2175 28.0974 23.2678C28.1923 23.3182 28.2949 23.3492 28.4073 23.3608C28.5215 23.3724 28.6281 23.3782 28.7307 23.3782C28.8605 23.3782 28.9961 23.3705 29.1355 23.3569C29.275 23.3434 29.397 23.3221 29.5055 23.293V21.9062V21.9081Z" fill="#231F20"/>
    <path d="M33.0887 23.967C33.0422 23.967 32.9958 23.967 32.9473 23.9709C32.8989 23.9728 32.8524 23.9748 32.8079 23.9748C32.7517 23.9748 32.6917 23.9748 32.6297 23.9709C32.5677 23.967 32.5154 23.9632 32.4767 23.9573L31.0298 19.5916C31.1034 19.58 31.1809 19.5742 31.2603 19.5703C31.3397 19.5684 31.4133 19.5664 31.4811 19.5664C31.5547 19.5664 31.638 19.5664 31.7271 19.5703C31.8181 19.5742 31.8937 19.58 31.9576 19.5916L33.1662 23.6513L34.4174 19.5916C34.5375 19.5742 34.675 19.5664 34.8339 19.5664C34.8958 19.5664 34.9675 19.5664 35.0469 19.5703C35.1263 19.5742 35.2057 19.58 35.2852 19.5916L33.5923 24.8425C33.5129 25.0749 33.4316 25.2706 33.3463 25.4294C33.2611 25.5882 33.1643 25.716 33.0577 25.8129C32.9493 25.9097 32.8292 25.9775 32.6955 26.0163C32.5619 26.055 32.4069 26.0763 32.2326 26.0763C32.1029 26.0763 31.9731 26.0666 31.8452 26.0472C31.7174 26.0279 31.6051 26.0027 31.5082 25.9756C31.5082 25.8458 31.5198 25.7296 31.5431 25.6269C31.5663 25.5243 31.5993 25.4236 31.6457 25.3209C31.6961 25.3383 31.7658 25.3558 31.8549 25.3771C31.9421 25.3964 32.037 25.4061 32.1397 25.4061C32.2133 25.4061 32.283 25.3984 32.3488 25.3848C32.4147 25.3713 32.4747 25.3422 32.5309 25.2996C32.5871 25.257 32.6394 25.1969 32.6878 25.1175C32.7362 25.0381 32.7827 24.9297 32.8272 24.7941L33.0907 23.969L33.0887 23.967Z" fill="#231F20"/>
  </g>
</svg>
