<svg width="51" height="40" viewBox="0 0 51 40" fill="none" xmlns="http://www.w3.org/2000/svg">
<rect width="51" height="40" rx="2.13" fill="white"/>
<rect x="0.5" y="0.5" width="50" height="39" rx="1.63" stroke="#9DADBC" stroke-opacity="0.36"/>
<g clip-path="url(#clip0_401_104)">
<path d="M5.49117 19.7321C5.49117 16.8545 7.82474 14.5209 10.7023 14.5209C13.5799 14.5209 15.9135 16.8534 15.9135 19.7321C15.9135 22.6108 13.581 24.9433 10.7023 24.9433C7.82364 24.9433 5.49117 22.6097 5.49117 19.7321Z" fill="white"/>
<path d="M19.4849 16.5637C19.4849 16.0528 19.2173 16.0869 18.9629 16.0814V15.9349C19.1843 15.9448 19.4111 15.9448 19.6325 15.9448C19.8703 15.9448 20.1941 15.9349 20.6148 15.9349C22.085 15.9349 22.8856 16.9161 22.8856 17.9216C22.8856 18.4832 22.5563 19.8973 20.5465 19.8973C20.258 19.8973 19.9904 19.8863 19.7239 19.8863C19.4574 19.8863 19.2184 19.8918 18.9629 19.8973V19.7497C19.3032 19.7156 19.4684 19.7045 19.4849 19.3191V16.5637ZM20.041 19.2266C20.041 19.6638 20.3538 19.7145 20.6313 19.7145C21.8581 19.7145 22.2601 18.7894 22.2601 17.9436C22.2601 16.8831 21.5795 16.1166 20.4837 16.1166C20.2514 16.1166 20.1435 16.1331 20.041 16.1387V19.2266Z" fill="#231F20"/>
<path d="M23.0838 19.7486H23.1918C23.3503 19.7486 23.4638 19.7486 23.4638 19.5603V18.0229C23.4638 17.7729 23.379 17.7388 23.1686 17.6265V17.5351C23.4362 17.4547 23.7534 17.3478 23.7765 17.3302C23.8162 17.3082 23.8503 17.3027 23.8789 17.3027C23.9076 17.3027 23.9186 17.3368 23.9186 17.382V19.5614C23.9186 19.7497 24.0441 19.7497 24.2027 19.7497H24.2996V19.8973C24.1069 19.8973 23.9076 19.8863 23.7038 19.8863C23.5001 19.8863 23.2953 19.8918 23.0849 19.8973V19.7497L23.0838 19.7486ZM23.6917 16.4283C23.5431 16.4283 23.4131 16.2917 23.4131 16.1442C23.4131 15.9966 23.5497 15.871 23.6917 15.871C23.8338 15.871 23.9703 15.99 23.9703 16.1442C23.9703 16.2983 23.8448 16.4283 23.6917 16.4283Z" fill="#231F20"/>
<path d="M24.8381 18.057C24.8381 17.8478 24.7754 17.7905 24.5089 17.6837V17.5747C24.7522 17.4954 24.9846 17.4205 25.2577 17.3027C25.2742 17.3027 25.2919 17.3137 25.2919 17.3588V17.7289C25.6156 17.4954 25.8943 17.3027 26.2753 17.3027C26.7576 17.3027 26.9283 17.654 26.9283 18.0978V19.5614C26.9283 19.7497 27.0539 19.7497 27.2125 19.7497H27.3149V19.8972C27.1156 19.8972 26.9173 19.8862 26.7136 19.8862C26.5099 19.8862 26.305 19.8917 26.1002 19.8972V19.7497H26.2026C26.3623 19.7497 26.4746 19.7497 26.4746 19.5614V18.0923C26.4746 17.7685 26.2764 17.6099 25.9526 17.6099C25.7709 17.6099 25.4813 17.7575 25.2941 17.883V19.5625C25.2941 19.7508 25.4196 19.7508 25.5793 19.7508H25.6817V19.8983C25.4824 19.8983 25.2831 19.8873 25.0793 19.8873C24.8756 19.8873 24.6708 19.8928 24.467 19.8983V19.7508H24.5694C24.728 19.7508 24.8414 19.7508 24.8414 19.5625V18.0581L24.8381 18.057Z" fill="#231F20"/>
<path d="M27.7455 18.3302C27.7334 18.3808 27.7334 18.4656 27.7455 18.6594C27.7785 19.199 28.1254 19.6418 28.5791 19.6418C28.8919 19.6418 29.1364 19.4711 29.3456 19.2607L29.4249 19.34C29.1639 19.6858 28.8401 19.9809 28.3754 19.9809C27.4724 19.9809 27.2907 19.1065 27.2907 18.7442C27.2907 17.632 28.0395 17.3027 28.4371 17.3027C28.8974 17.3027 29.3919 17.5923 29.3974 18.1936C29.3974 18.2288 29.3974 18.2619 29.3919 18.296L29.3401 18.3302H27.7455ZM28.7509 18.1473C28.8919 18.1473 28.9084 18.0736 28.9084 18.0053C28.9084 17.7145 28.7322 17.4822 28.415 17.4822C28.0692 17.4822 27.8303 17.7377 27.762 18.1462H28.7509V18.1473Z" fill="#231F20"/>
<path d="M29.5273 19.7486H29.6815C29.8401 19.7486 29.9535 19.7486 29.9535 19.5603V17.9656C29.9535 17.7905 29.7443 17.7564 29.6584 17.7101V17.6264C30.0724 17.4502 30.3004 17.3027 30.3511 17.3027C30.3852 17.3027 30.4017 17.3192 30.4017 17.3765V17.8874H30.4138C30.5548 17.6661 30.7938 17.3038 31.1396 17.3038C31.2816 17.3038 31.4622 17.3996 31.4622 17.6044C31.4622 17.7575 31.3554 17.8952 31.1957 17.8952C31.0195 17.8952 31.0195 17.7586 30.8213 17.7586C30.7244 17.7586 30.4072 17.8885 30.4072 18.2299V19.5625C30.4072 19.7508 30.5207 19.7508 30.6792 19.7508H30.9975V19.8983C30.6847 19.8928 30.4469 19.8873 30.2035 19.8873C29.9601 19.8873 29.7321 19.8928 29.5273 19.8983V19.7508V19.7486Z" fill="#231F20"/>
<path d="M31.7133 19.1076C31.7871 19.4821 32.0151 19.8003 32.4291 19.8003C32.7639 19.8003 32.8884 19.5955 32.8884 19.3973C32.8884 18.7277 31.6516 18.9425 31.6516 18.0295C31.6516 17.7112 31.9071 17.3027 32.5316 17.3027C32.7133 17.3027 32.9566 17.3533 33.178 17.4668L33.2176 18.046H33.0877C33.0315 17.6881 32.8322 17.4833 32.4688 17.4833C32.2408 17.4833 32.0261 17.6143 32.0261 17.8588C32.0261 18.5229 33.3432 18.3191 33.3432 19.2101C33.3432 19.5845 33.0425 19.982 32.3675 19.982C32.1395 19.982 31.873 19.9028 31.6748 19.7893L31.612 19.1363L31.7133 19.1076Z" fill="#231F20"/>
<path d="M38.4685 16.9613H38.3264C38.2185 16.2972 37.7471 16.0307 37.1128 16.0307C36.4785 16.0307 35.5105 16.4679 35.5105 17.8291C35.5105 18.9766 36.3298 19.8003 37.2031 19.8003C37.7648 19.8003 38.2306 19.4149 38.3451 18.818L38.4751 18.8522L38.3451 19.6814C38.1062 19.829 37.4641 19.9821 37.0897 19.9821C35.7616 19.9821 34.9224 19.1253 34.9224 17.8478C34.9224 16.6838 35.9609 15.849 37.0732 15.849C37.5335 15.849 37.9751 15.9966 38.4123 16.1497L38.4685 16.9613Z" fill="#231F20"/>
<path d="M38.6733 19.7486H38.7812C38.9409 19.7486 39.0543 19.7486 39.0543 19.5603V16.4008C39.0543 16.0307 38.9695 16.0197 38.7537 15.9569V15.8655C38.9806 15.7918 39.2195 15.6904 39.3385 15.6211C39.4001 15.5869 39.4464 15.5583 39.4629 15.5583C39.497 15.5583 39.5081 15.5924 39.5081 15.6387V19.5614C39.5081 19.7497 39.6336 19.7497 39.7922 19.7497H39.8891V19.8973C39.6975 19.8973 39.4982 19.8863 39.2922 19.8863C39.0863 19.8863 38.8847 19.8918 38.6733 19.8973V19.7497V19.7486Z" fill="#231F20"/>
<path d="M42.3185 19.5845C42.3185 19.6869 42.3802 19.6924 42.4771 19.6924C42.5442 19.6924 42.6301 19.6869 42.705 19.6869V19.8059C42.4594 19.8279 41.9947 19.9479 41.8868 19.981L41.8593 19.9644V19.5052C41.519 19.7827 41.2569 19.981 40.8538 19.981C40.5477 19.981 40.2305 19.7827 40.2305 19.3059V17.8522C40.2305 17.7046 40.2074 17.5615 39.8902 17.534V17.426C40.095 17.4194 40.5477 17.3864 40.6225 17.3864C40.6853 17.3864 40.6853 17.426 40.6853 17.5505V19.0152C40.6853 19.1847 40.6853 19.6737 41.1787 19.6737C41.3714 19.6737 41.6269 19.5261 41.8648 19.329V17.8005C41.8648 17.687 41.5927 17.6254 41.389 17.5681V17.4657C41.9 17.4315 42.2183 17.3864 42.2744 17.3864C42.3196 17.3864 42.3196 17.426 42.3196 17.4888V19.5823L42.3185 19.5845Z" fill="#231F20"/>
<path d="M43.4484 17.7113C43.6752 17.5185 43.9825 17.3038 44.2941 17.3038C44.9527 17.3038 45.3503 17.8775 45.3503 18.4954C45.3503 19.2387 44.8051 19.9832 43.9924 19.9832C43.5717 19.9832 43.3515 19.8466 43.2039 19.7849L43.0343 19.9149L42.9154 19.8532C42.9649 19.5184 42.9947 19.1892 42.9947 18.8423V16.4008C42.9947 16.0307 42.9099 16.0197 42.694 15.9569V15.8655C42.922 15.7918 43.1598 15.6904 43.2788 15.6211C43.3405 15.5869 43.3867 15.5583 43.4043 15.5583C43.4385 15.5583 43.4495 15.5924 43.4495 15.6387V17.7102L43.4484 17.7113ZM43.4484 19.2552C43.4484 19.4711 43.6532 19.8345 44.0332 19.8345C44.641 19.8345 44.8965 19.2376 44.8965 18.7332C44.8965 18.1209 44.4307 17.6099 43.988 17.6099C43.7766 17.6099 43.6015 17.7465 43.4484 17.8775V19.2563V19.2552Z" fill="#231F20"/>
<path d="M18.9563 23.1977H18.9992C19.1105 23.1977 19.2283 23.1834 19.2283 23.0215V21.4038C19.2283 21.243 19.1105 21.2276 18.9992 21.2276H18.9563V21.134C19.0774 21.134 19.2624 21.1472 19.4133 21.1472C19.5642 21.1472 19.7525 21.134 19.8979 21.134V21.2276H19.8549C19.7437 21.2276 19.6259 21.2419 19.6259 21.4038V23.0215C19.6259 23.1823 19.7437 23.1977 19.8549 23.1977H19.8979V23.2913C19.7503 23.2913 19.5642 23.2792 19.41 23.2792C19.2558 23.2792 19.0763 23.2913 18.9563 23.2913V23.1977Z" fill="#231F20"/>
<path d="M19.8979 23.3035C19.7492 23.3035 19.5631 23.2913 19.41 23.2913C19.2569 23.2913 19.0774 23.3035 18.9563 23.3035H18.9431V23.1845H18.9992C19.1116 23.1823 19.2129 23.1724 19.214 23.0215V21.4038C19.214 21.2529 19.1116 21.243 18.9992 21.2408H18.9431V21.1219H18.9563C19.0774 21.1219 19.2624 21.134 19.4133 21.134C19.5642 21.134 19.7514 21.1219 19.8979 21.1219H19.9111V21.2408H19.8549C19.7426 21.243 19.6402 21.2529 19.6391 21.4038V23.0215C19.6391 23.1724 19.7426 23.1823 19.8549 23.1845H19.9111V23.3035H19.8979ZM19.8847 23.277V23.211H19.8549C19.7448 23.211 19.6126 23.1911 19.6126 23.0204V21.4027C19.6126 21.232 19.7448 21.2133 19.8549 21.2133H19.8847V21.1483C19.7426 21.1483 19.5631 21.1604 19.4133 21.1604C19.2635 21.1604 19.0884 21.1494 18.9695 21.1483V21.2133H18.9992C19.1094 21.2133 19.2404 21.232 19.2404 21.4027V23.0204C19.2404 23.1911 19.1083 23.211 18.9992 23.211H18.9695V23.277C19.0884 23.2748 19.2635 23.2649 19.41 23.2649C19.5565 23.2649 19.7393 23.2759 19.8847 23.277Z" fill="#231F20"/>
<path d="M22.02 22.6823L22.0266 22.6757V21.5172C22.0266 21.2639 21.8504 21.2276 21.7579 21.2276H21.6907V21.134C21.8361 21.134 21.9782 21.1461 22.1235 21.1461C22.2502 21.1461 22.3768 21.134 22.5035 21.134V21.2276H22.4583C22.3284 21.2276 22.1819 21.2518 22.1819 21.6196V23.0259C22.1819 23.1339 22.1852 23.2418 22.2006 23.3376H22.0828L20.4915 21.5646V22.8365C20.4915 23.1063 20.5432 23.1977 20.7822 23.1977H20.8339V23.2913C20.7018 23.2913 20.5685 23.2792 20.4353 23.2792C20.302 23.2792 20.1545 23.2913 20.0157 23.2913V23.1977H20.0587C20.2723 23.1977 20.3373 23.0535 20.3373 22.8057V21.5051C20.3373 21.3322 20.1941 21.2276 20.0554 21.2276H20.0157V21.134C20.1324 21.134 20.2536 21.1461 20.3703 21.1461C20.4628 21.1461 20.5531 21.134 20.6456 21.134L22.0211 22.6823H22.02Z" fill="#231F20"/>
<path d="M22.1995 23.3508L22.0718 23.3464L20.5036 21.5998V22.8376C20.508 23.1063 20.5487 23.1823 20.7811 23.1867H20.8472V23.3057H20.8329C20.6996 23.3057 20.5664 23.2936 20.4342 23.2936C20.302 23.2936 20.1545 23.3057 20.0135 23.3057H20.0003V23.1867H20.0576C20.2624 23.1845 20.3197 23.0535 20.323 22.8079V21.5073C20.323 21.3432 20.1875 21.243 20.0554 21.243H20.0014V21.1241H20.0146C20.1336 21.1241 20.2536 21.1362 20.3703 21.1362C20.4617 21.1362 20.552 21.1241 20.6556 21.1285L22.0134 22.6559V21.5194C22.0112 21.2738 21.8482 21.2441 21.7579 21.2419H21.6764V21.123H21.6907C21.8361 21.123 21.9793 21.1351 22.1235 21.1351C22.2491 21.1351 22.3757 21.123 22.5035 21.123H22.5178V21.2419H22.4583C22.3306 21.2452 22.1995 21.2573 22.1962 21.6207V23.0271C22.1962 23.1339 22.1995 23.2418 22.2138 23.3365L22.216 23.3519H22.2006L22.1995 23.3508ZM22.0817 23.3233H22.1841C22.1698 23.2308 22.1676 23.1273 22.1676 23.0249V21.6185C22.1676 21.2474 22.3229 21.2133 22.4561 21.2133H22.4892V21.1472C22.3669 21.1472 22.2458 21.1593 22.1224 21.1593C21.9804 21.1593 21.8427 21.1483 21.7029 21.1472V21.2133H21.7568C21.8526 21.2133 22.0387 21.2551 22.0387 21.5172L22.0354 22.6846L22.0288 22.6901L22.0178 22.7L20.6445 21.1472C20.552 21.1472 20.4628 21.1593 20.3692 21.1593C20.2558 21.1593 20.1402 21.1483 20.0278 21.1472V21.2133H20.0543C20.1996 21.2133 20.3483 21.3234 20.3483 21.504V22.8046C20.3483 23.0524 20.2789 23.2099 20.0576 23.211H20.0278V23.277C20.1611 23.2748 20.2987 23.2638 20.4342 23.2638C20.5697 23.2638 20.6919 23.2748 20.8196 23.277V23.211H20.7811C20.5377 23.211 20.4772 23.1052 20.4772 22.8354V21.5282L22.0817 23.3222V23.3233Z" fill="#231F20"/>
<path d="M22.9649 21.2882C22.7325 21.2882 22.7248 21.3443 22.6775 21.569H22.585C22.5971 21.4831 22.6125 21.3961 22.6224 21.3058C22.6345 21.2199 22.6411 21.1329 22.6411 21.0437H22.716C22.7402 21.1362 22.8173 21.1329 22.901 21.1329H24.4946C24.5782 21.1329 24.6553 21.1307 24.6619 21.0371L24.7357 21.0503C24.7247 21.1329 24.7115 21.2166 24.7027 21.3003C24.6961 21.384 24.6961 21.4677 24.6961 21.5503L24.6036 21.5844C24.597 21.4699 24.5815 21.287 24.3745 21.287H23.8679V22.9301C23.8679 23.1691 23.9759 23.1955 24.1245 23.1955H24.1829V23.288C24.0629 23.288 23.8459 23.2759 23.6796 23.2759C23.4946 23.2759 23.2777 23.288 23.1576 23.288V23.1955H23.216C23.3867 23.1955 23.4726 23.1801 23.4726 22.9367V21.2859H22.966L22.9649 21.2882Z" fill="#231F20"/>
<path d="M24.1829 23.3035C24.0606 23.3035 23.8448 23.2913 23.6785 23.2913C23.4935 23.2913 23.2776 23.3035 23.1565 23.3035H23.1433V23.1845H23.2149C23.3856 23.1801 23.4538 23.1779 23.4572 22.9389V21.3014H22.9638V21.2749H23.4836V22.9378C23.4836 23.1856 23.3834 23.211 23.2138 23.211H23.1686V23.2759C23.2909 23.2759 23.4979 23.2638 23.6774 23.2638C23.8382 23.2638 24.0452 23.2748 24.1675 23.2759V23.211H24.1223C23.9725 23.211 23.8525 23.1746 23.8525 22.9312V21.2749H24.3723C24.5793 21.2749 24.6069 21.4511 24.6135 21.5657L24.6807 21.5414C24.6807 21.461 24.6807 21.3807 24.6862 21.2992C24.695 21.2199 24.706 21.1417 24.7181 21.0624L24.6707 21.0547C24.6553 21.1439 24.5694 21.1494 24.4923 21.1483H22.8823C22.8096 21.1483 22.7303 21.145 22.7028 21.0591H22.651C22.651 21.145 22.6444 21.2276 22.6323 21.3102C22.6235 21.395 22.6103 21.4765 22.5982 21.5569H22.6642C22.705 21.3421 22.7314 21.2727 22.9616 21.276V21.3025C22.7336 21.3069 22.7391 21.3454 22.6874 21.5734L22.6852 21.5844H22.5662L22.5684 21.569C22.5805 21.4831 22.5971 21.3961 22.6059 21.3058C22.618 21.2199 22.6246 21.134 22.6246 21.0459V21.0327H22.7226L22.7248 21.0426C22.7457 21.1208 22.803 21.1208 22.8812 21.123H24.4912C24.5771 21.1208 24.6399 21.1197 24.6454 21.0393V21.0249L24.6608 21.0272L24.7478 21.0404V21.0536C24.7346 21.1373 24.7225 21.2199 24.7137 21.3025C24.7071 21.3851 24.7071 21.4688 24.7071 21.5525V21.5624L24.6983 21.5657L24.5881 21.6053V21.5866C24.5793 21.471 24.5672 21.3025 24.3723 21.3025H23.8789V22.9323C23.8822 23.1658 23.9747 23.1823 24.1223 23.1845H24.1939V23.3035H24.1818H24.1829Z" fill="#231F20"/>
<path d="M24.8337 23.1977H24.8767C24.9879 23.1977 25.1046 23.1834 25.1046 23.0215V21.4038C25.1046 21.243 24.9868 21.2276 24.8767 21.2276H24.8337V21.134C25.021 21.134 25.3436 21.1472 25.6024 21.1472C25.8612 21.1472 26.1828 21.134 26.3931 21.134C26.3876 21.2672 26.3909 21.4721 26.3997 21.6075L26.3061 21.6317C26.2918 21.4313 26.2544 21.2705 25.9295 21.2705H25.5011V22.0789H25.8678C26.0539 22.0789 26.0936 21.9742 26.1123 21.8079H26.2048C26.1993 21.928 26.196 22.0491 26.196 22.1692C26.196 22.2892 26.1993 22.4037 26.2048 22.5216L26.1123 22.5403C26.0947 22.3553 26.0848 22.2341 25.8711 22.2341H25.5011V22.9533C25.5011 23.1537 25.6795 23.1537 25.8766 23.1537C26.2478 23.1537 26.4107 23.1295 26.5044 22.7771L26.5902 22.7991C26.5506 22.9632 26.5132 23.1262 26.4856 23.2902C26.2885 23.2902 25.9328 23.2781 25.6542 23.2781C25.3756 23.2781 25.0088 23.2902 24.8326 23.2902V23.1966L24.8337 23.1977Z" fill="#231F20"/>
<path d="M26.4856 23.3035C26.2874 23.3035 25.9328 23.2913 25.6542 23.2913C25.3756 23.2913 25.0088 23.3035 24.8326 23.3035H24.8194V23.1845H24.8756C24.9868 23.1823 25.0892 23.1724 25.0903 23.0215V21.4027C25.0903 21.2518 24.9868 21.2419 24.8756 21.2397H24.8194V21.1208H24.8326C25.021 21.1208 25.3425 21.1329 25.6013 21.1329C25.8601 21.1329 26.1817 21.1208 26.392 21.1208H26.4063V21.134C26.4041 21.1802 26.403 21.2353 26.403 21.2937C26.403 21.3994 26.4063 21.5161 26.413 21.6042V21.6152L26.403 21.6185L26.294 21.6472V21.6306C26.2753 21.4302 26.2489 21.2848 25.9306 21.2815H25.5143V22.0634H25.8678C26.0462 22.0623 26.0771 21.9709 26.0991 21.8046V21.7925H26.2191V21.8057C26.2125 21.9258 26.2092 22.0469 26.2092 22.167C26.2092 22.287 26.2125 22.4015 26.2191 22.5194V22.5304L26.2081 22.5326L26.1002 22.5535V22.5392C26.0782 22.3509 26.0771 22.2473 25.8711 22.2451H25.5132V22.9511C25.5132 23.1383 25.6751 23.1383 25.8766 23.1383C26.2489 23.1361 26.3975 23.1184 26.4911 22.7716L26.4944 22.7594L26.5077 22.7616L26.6068 22.787L26.6046 22.8002C26.5649 22.9632 26.5275 23.1273 26.5 23.2902L26.4978 23.3013H26.4867L26.4856 23.3035ZM26.4746 23.277C26.5011 23.1218 26.5363 22.9654 26.5748 22.8101L26.5143 22.7947C26.4218 23.1405 26.2423 23.1713 25.8777 23.168C25.6828 23.168 25.4879 23.168 25.4879 22.9544V22.222H25.8722C26.0881 22.2198 26.109 22.3498 26.1244 22.526L26.1916 22.5117C26.1861 22.3982 26.1828 22.2837 26.1828 22.1703C26.1828 22.0568 26.1861 21.939 26.1916 21.8212H26.1244C26.1079 21.983 26.0572 22.0954 25.8689 22.0932H25.4879V21.2573H25.9306C26.2522 21.2551 26.3061 21.4214 26.3193 21.6152L26.3854 21.5976C26.3799 21.5106 26.3777 21.3994 26.3777 21.2959C26.3777 21.2419 26.3777 21.1923 26.3799 21.1494C26.1707 21.1494 25.8568 21.1615 25.6035 21.1615C25.3502 21.1615 25.0375 21.1505 24.8481 21.1494V21.2155H24.8778C24.9879 21.2155 25.119 21.2342 25.1201 21.4049V23.0237C25.1201 23.1944 24.9879 23.2121 24.8778 23.2143H24.8481V23.2792C25.0276 23.2792 25.3855 23.2671 25.6564 23.2671C25.9273 23.2671 26.2764 23.2781 26.4757 23.2792" fill="#231F20"/>
<path d="M27.0087 21.4621C27.0087 21.2364 26.8854 21.2276 26.7896 21.2276H26.7334V21.134C26.8325 21.134 27.0241 21.1461 27.2125 21.1461C27.4008 21.1461 27.5461 21.134 27.7102 21.134C28.099 21.134 28.4448 21.2397 28.4448 21.678C28.4448 21.9555 28.2598 22.1251 28.0164 22.222L28.545 23.0116C28.6309 23.1427 28.6926 23.179 28.8445 23.1966V23.2891C28.7432 23.2891 28.6441 23.277 28.5417 23.277C28.4448 23.277 28.3468 23.2891 28.251 23.2891C28.0131 22.9775 27.8093 22.6438 27.6089 22.2881H27.4052V22.9489C27.4052 23.1878 27.5153 23.1955 27.6574 23.1955H27.7135V23.288C27.5362 23.288 27.3578 23.2759 27.1816 23.2759C27.0341 23.2759 26.8887 23.288 26.7334 23.288V23.1955H26.7896C26.903 23.1955 27.0087 23.1438 27.0087 23.0292V21.4599V21.4621ZM27.4041 22.1791H27.555C27.8644 22.1791 28.0307 22.0623 28.0307 21.6978C28.0307 21.4236 27.8545 21.2463 27.5792 21.2463C27.4856 21.2463 27.4459 21.2562 27.4041 21.2584V22.1791Z" fill="#231F20"/>
<path d="M28.8423 23.3035C28.7388 23.3035 28.6408 23.2913 28.5384 23.2913C28.4448 23.2913 28.3457 23.3035 28.2377 23.2991C28.001 22.9874 27.7983 22.6559 27.599 22.3024H27.4162V22.95C27.4195 23.1823 27.5131 23.1801 27.6552 23.1845H27.7245V23.3035H27.7102C27.5329 23.3035 27.3534 23.2913 27.1783 23.2913C27.0307 23.2913 26.8865 23.3035 26.7301 23.3035H26.718V23.1845H26.7874C26.8986 23.1845 26.9922 23.135 26.9922 23.0303V21.461C26.99 21.2419 26.8821 21.243 26.7874 21.2397H26.718V21.1208H26.7301C26.8314 21.1208 27.0208 21.1329 27.2102 21.1329C27.3997 21.1329 27.5428 21.1208 27.708 21.1208C28.0968 21.1208 28.4558 21.2287 28.4569 21.6769C28.4569 21.9555 28.2719 22.1295 28.034 22.2275L28.5527 23.005C28.6386 23.1339 28.6925 23.1658 28.8434 23.1845H28.8544V23.3035H28.8412H28.8423ZM27.403 22.276H27.6144L27.6177 22.2826C27.8181 22.6383 28.0219 22.9709 28.2498 23.277C28.3446 23.277 28.4437 23.2649 28.5395 23.2649C28.6353 23.2649 28.7333 23.2759 28.8302 23.277V23.2088C28.6848 23.1911 28.6177 23.1482 28.5329 23.0204L27.9943 22.2165L28.0098 22.2099C28.2509 22.1152 28.4304 21.95 28.4304 21.678C28.4304 21.2496 28.0968 21.1494 27.7091 21.1483C27.5461 21.1483 27.3964 21.1604 27.2114 21.1604C27.0263 21.1604 26.8468 21.1494 26.7455 21.1483V21.2144H26.7885C26.8843 21.2144 27.0208 21.2298 27.0208 21.4621V23.0314C27.0208 23.1559 26.9052 23.2121 26.7885 23.2121H26.7455V23.277C26.8942 23.277 27.0351 23.2649 27.1794 23.2649C27.3523 23.2649 27.5263 23.2759 27.6981 23.277V23.2121H27.6563C27.5153 23.2121 27.3898 23.1944 27.3898 22.9511V22.2771H27.403V22.276ZM27.403 22.1912H27.3898V21.2452H27.4008C27.4437 21.2408 27.4845 21.2331 27.5781 21.2331C27.8589 21.2331 28.0428 21.4159 28.0428 21.6978C28.0428 22.0667 27.8644 22.1923 27.5538 22.1923H27.403V22.1912ZM27.5538 22.1648C27.8589 22.1615 28.0142 22.0557 28.0164 21.6967C28.0153 21.4269 27.8468 21.2595 27.5781 21.2584C27.4944 21.2584 27.4558 21.2661 27.4162 21.2705V22.1648H27.5538Z" fill="#231F20"/>
<path d="M30.9402 22.6823L30.9457 22.6757V21.5172C30.9457 21.2639 30.7695 21.2276 30.6781 21.2276H30.6099V21.134C30.7552 21.134 30.8962 21.1461 31.0427 21.1461C31.1693 21.1461 31.2959 21.134 31.4226 21.134V21.2276H31.3763C31.2464 21.2276 31.101 21.2518 31.101 21.6196V23.0259C31.101 23.1339 31.1032 23.2418 31.1186 23.3376H31.0019L29.4106 21.5646V22.8365C29.4106 23.1063 29.4634 23.1977 29.7013 23.1977H29.7542V23.2913C29.6209 23.2913 29.4877 23.2792 29.3555 23.2792C29.2234 23.2792 29.0747 23.2913 28.9359 23.2913V23.1977H28.9789C29.1925 23.1977 29.2575 23.0535 29.2575 22.8057V21.5051C29.2575 21.3322 29.1154 21.2276 28.9767 21.2276H28.937V21.134C29.0538 21.134 29.1749 21.1461 29.2917 21.1461C29.3842 21.1461 29.4734 21.134 29.5659 21.134L30.9402 22.6823Z" fill="#231F20"/>
<path d="M31.1186 23.3508L30.992 23.3464L29.4249 21.5998V22.8376C29.4282 23.1074 29.469 23.1823 29.7024 23.1867H29.7674V23.3057H29.7542C29.6209 23.3057 29.4877 23.2935 29.3555 23.2935C29.2234 23.2935 29.0736 23.3057 28.9359 23.3057H28.9216V23.1867H28.9778C29.1815 23.1867 29.241 23.0535 29.2432 22.8068V21.5062C29.2432 21.341 29.1088 21.2419 28.9756 21.2419H28.9216V21.123H28.9359C29.0538 21.123 29.1749 21.1351 29.2905 21.1351C29.382 21.1351 29.4712 21.123 29.5747 21.1263L30.9325 22.6548V21.5183C30.9325 21.2727 30.7673 21.2419 30.6781 21.2408H30.5966V21.1219H30.6099C30.7563 21.1219 30.8984 21.134 31.0427 21.134C31.1682 21.134 31.2948 21.1219 31.4226 21.1219H31.4358V21.2408H31.3763C31.2486 21.2441 31.1175 21.2562 31.1142 21.6196V23.0259C31.1142 23.1328 31.1164 23.2396 31.133 23.3354V23.3508H31.1197H31.1186ZM31.0019 23.3233H31.1032C31.09 23.2308 31.0878 23.1273 31.0878 23.0248V21.6185C31.0878 21.2474 31.2442 21.2144 31.3763 21.2133H31.4083V21.1472C31.2871 21.1472 31.1649 21.1593 31.0416 21.1593C30.8995 21.1593 30.7618 21.1483 30.622 21.1472V21.2133H30.677C30.7717 21.2133 30.959 21.2551 30.959 21.5172L30.9546 22.6845L30.949 22.6901L30.9391 22.7011L29.5648 21.1472C29.4734 21.1472 29.3831 21.1593 29.2905 21.1593C29.176 21.1593 29.0604 21.1483 28.9481 21.1472V21.2133H28.9745C29.1199 21.2133 29.2685 21.3234 29.2685 21.504V22.8046C29.2685 23.0524 29.198 23.2099 28.9767 23.211H28.947V23.2759C29.0802 23.2759 29.2179 23.2638 29.3544 23.2638C29.491 23.2638 29.6121 23.2748 29.7399 23.2759V23.211H29.7013C29.4579 23.211 29.3974 23.1052 29.3963 22.8354V21.5282L31.0019 23.3222V23.3233Z" fill="#231F20"/>
<path d="M31.9193 22.8486C31.8873 22.9533 31.8499 23.0348 31.8499 23.0898C31.8499 23.1823 31.9809 23.1977 32.0822 23.1977H32.1164V23.2902C31.9919 23.2836 31.8664 23.2781 31.742 23.2781C31.6307 23.2781 31.5195 23.2836 31.4094 23.2902V23.1977H31.427C31.547 23.1977 31.6494 23.1273 31.6946 22.9973L32.1891 21.58C32.2287 21.4655 32.286 21.3113 32.3036 21.1956C32.4027 21.1615 32.5261 21.1009 32.5855 21.0635C32.5954 21.0602 32.5998 21.058 32.6097 21.058C32.6186 21.058 32.6252 21.058 32.6318 21.0668C32.6406 21.091 32.6505 21.1197 32.6604 21.1439L33.2287 22.7594C33.2661 22.8674 33.3024 22.9819 33.3432 23.0744C33.3806 23.1603 33.4456 23.1966 33.548 23.1966H33.5656V23.2891C33.4269 23.2825 33.2881 23.277 33.1395 23.277C32.9908 23.277 32.8333 23.2825 32.6769 23.2891V23.1966H32.7111C32.7815 23.1966 32.9027 23.1856 32.9027 23.1074C32.9027 23.0667 32.8752 22.9841 32.8399 22.885L32.7199 22.5271H32.0184L31.9204 22.8486H31.9193ZM32.3697 21.4798H32.3631L32.0756 22.3542H32.6527L32.3686 21.4798H32.3697Z" fill="#231F20"/>
<path d="M33.5645 23.3035C33.4269 23.298 33.287 23.2914 33.1395 23.2914C32.9919 23.2914 32.8344 23.298 32.6769 23.3035H32.6626V23.2903V23.1834H32.71C32.7804 23.1834 32.8873 23.168 32.8873 23.1086C32.8873 23.0733 32.8608 22.9885 32.8267 22.8905L32.7089 22.5414H32.0272L31.9303 22.8531C31.8983 22.9588 31.862 23.0403 31.862 23.0898C31.862 23.1647 31.9787 23.1834 32.0811 23.1834H32.1285V23.3046H32.1142C31.9908 23.298 31.8642 23.2914 31.7408 23.2914C31.6296 23.2914 31.5184 23.298 31.4083 23.3035H31.3951V23.2903V23.1834H31.4259C31.5404 23.1834 31.6362 23.1174 31.6814 22.9918L32.1758 21.5745C32.2166 21.46 32.2717 21.3058 32.2992 21.1835C32.3961 21.1494 32.5194 21.0877 32.58 21.0503C32.5888 21.047 32.5965 21.0426 32.6097 21.0426C32.6175 21.0426 32.634 21.0448 32.6439 21.0613C32.6538 21.0866 32.6626 21.1142 32.6725 21.1384L33.2419 22.7539C33.2782 22.8619 33.3157 22.9764 33.3553 23.0667C33.3905 23.1493 33.4478 23.1823 33.5469 23.1823H33.5789V23.3035H33.5645ZM32.689 23.2748C32.841 23.2704 32.9919 23.2638 33.1395 23.2638C33.287 23.2638 33.417 23.2704 33.5513 23.2748V23.211H33.5469C33.4412 23.211 33.3685 23.1691 33.33 23.0788C33.2903 22.9852 33.2518 22.8707 33.2154 22.7628L32.6472 21.1472C32.6373 21.1219 32.6285 21.0943 32.6208 21.0723C32.6175 21.069 32.6186 21.069 32.6164 21.069H32.6108C32.6042 21.069 32.6009 21.0712 32.5932 21.0734C32.5338 21.112 32.4093 21.1725 32.3179 21.1968C32.2992 21.3146 32.243 21.4677 32.2034 21.5822L31.71 23.0006C31.6627 23.135 31.5547 23.211 31.4281 23.211H31.4237V23.2748C31.5294 23.2704 31.6362 23.2638 31.7442 23.2638C31.8631 23.2638 31.9853 23.2704 32.1032 23.2748V23.211H32.0833C31.982 23.2099 31.8422 23.1989 31.8389 23.0887C31.8389 23.0271 31.8763 22.9478 31.9071 22.8443L31.9204 22.8476L31.9071 22.8432L32.0085 22.5128H32.7276L32.852 22.8795C32.8873 22.9786 32.9148 23.0612 32.9148 23.1064C32.9104 23.2011 32.7804 23.2077 32.71 23.2099H32.689V23.2737V23.2748ZM32.0569 22.3674L32.3531 21.4666H32.3697H32.3785L32.6714 22.3674H32.0569ZM32.0944 22.341H32.6351L32.3664 21.5128L32.0944 22.341Z" fill="#231F20"/>
<path d="M33.7011 21.2882C33.4687 21.2882 33.4599 21.3443 33.4137 21.569H33.3212C33.3333 21.4831 33.3498 21.3961 33.3586 21.3058C33.3707 21.2199 33.3773 21.1329 33.3773 21.0437H33.4511C33.4753 21.1362 33.5535 21.1329 33.6361 21.1329H35.2297C35.3133 21.1329 35.3893 21.1307 35.3959 21.0371L35.4708 21.0503C35.4587 21.1329 35.4466 21.2166 35.4367 21.3003C35.429 21.384 35.429 21.4677 35.429 21.5503L35.3376 21.5844C35.3321 21.4699 35.3167 21.287 35.1096 21.287H34.603V22.9301C34.603 23.1691 34.711 23.1955 34.8596 23.1955H34.918V23.288C34.798 23.288 34.5821 23.2759 34.4147 23.2759C34.2297 23.2759 34.0128 23.288 33.8916 23.288V23.1955H33.9511C34.1218 23.1955 34.2088 23.1801 34.2088 22.9367V21.2859H33.7022L33.7011 21.2882Z" fill="#231F20"/>
<path d="M34.918 23.3035C34.798 23.3035 34.581 23.2913 34.4147 23.2913C34.2297 23.2913 34.0139 23.3035 33.8916 23.3035H33.8784V23.1845H33.95C34.1207 23.1801 34.1879 23.1779 34.1923 22.9389V21.3014H33.7V21.2749H34.2198V22.9378C34.2198 23.1856 34.1207 23.2099 33.95 23.211H33.9048V23.2759C34.0271 23.2748 34.2341 23.2638 34.4136 23.2638C34.5744 23.2638 34.7814 23.2748 34.9037 23.2759V23.211H34.8574C34.7088 23.2099 34.5887 23.1746 34.5887 22.9312V21.2749H35.1085C35.3167 21.2749 35.3431 21.4511 35.3497 21.5657L35.4169 21.5414C35.4169 21.4611 35.4169 21.3807 35.4235 21.2992C35.4323 21.2199 35.4444 21.1406 35.4554 21.0624L35.4092 21.0536C35.3937 21.1428 35.3078 21.1483 35.2297 21.1472H33.6196C33.5469 21.1472 33.4687 21.1439 33.4401 21.0569H33.3894C33.3894 21.1439 33.3828 21.2254 33.3707 21.3091C33.3619 21.3939 33.3476 21.4754 33.3355 21.5558H33.4016C33.4423 21.341 33.4687 21.2705 33.7 21.2749V21.3014C33.4709 21.3058 33.4764 21.3443 33.4258 21.5723L33.4236 21.5833H33.3046L33.3069 21.5679C33.319 21.482 33.3355 21.395 33.3443 21.3058C33.3564 21.2188 33.363 21.1329 33.363 21.0448V21.0316H33.461L33.4632 21.0415C33.4853 21.1197 33.5425 21.1197 33.6207 21.1219H35.2308C35.3167 21.1197 35.3794 21.1186 35.3838 21.0382V21.0238L35.3993 21.0261L35.4874 21.0393L35.4852 21.0525C35.4719 21.1362 35.4609 21.2188 35.451 21.3014C35.4455 21.384 35.4455 21.4677 35.4455 21.5514V21.5613L35.4356 21.5646L35.3255 21.6042V21.5855C35.3178 21.4699 35.3056 21.3014 35.1096 21.3014H34.6163V22.9312C34.6196 23.1647 34.7121 23.1812 34.8585 23.1834H34.9312V23.3024H34.918V23.3035Z" fill="#231F20"/>
<path d="M35.5843 23.1977H35.6272C35.7395 23.1977 35.8563 23.1834 35.8563 23.0215V21.4038C35.8563 21.243 35.7395 21.2276 35.6272 21.2276H35.5843V21.134C35.7043 21.134 35.8893 21.1472 36.0413 21.1472C36.1933 21.1472 36.3816 21.134 36.5269 21.134V21.2276H36.484C36.3717 21.2276 36.2538 21.2419 36.2538 21.4038V23.0215C36.2538 23.1823 36.3717 23.1977 36.484 23.1977H36.5269V23.2913C36.3783 23.2913 36.1933 23.2792 36.038 23.2792C35.8827 23.2792 35.7043 23.2913 35.5843 23.2913V23.1977Z" fill="#231F20"/>
<path d="M36.5269 23.3035C36.3772 23.3035 36.1922 23.2913 36.038 23.2913C35.8838 23.2913 35.7043 23.3035 35.5843 23.3035H35.571V23.1845H35.6272C35.7395 23.1823 35.8409 23.1724 35.842 23.0215V21.4027C35.842 21.2518 35.7395 21.2419 35.6272 21.2397H35.571V21.1208H35.5843C35.7043 21.1208 35.8904 21.1329 36.0413 21.1329C36.1922 21.1329 36.3805 21.1208 36.5269 21.1208H36.5391V21.2397H36.4829C36.3695 21.2419 36.2681 21.2529 36.267 21.4027V23.0215C36.267 23.1724 36.3695 23.1823 36.4829 23.1845H36.5391V23.3035H36.5269ZM36.5126 23.277V23.2121H36.484C36.3728 23.2121 36.2417 23.1922 36.2417 23.0215V21.4027C36.2417 21.232 36.3728 21.2133 36.484 21.2133H36.5126V21.1472C36.3706 21.1472 36.1922 21.1593 36.0413 21.1593C35.8904 21.1593 35.7175 21.1483 35.5975 21.1472V21.2133H35.6272C35.7373 21.2133 35.8695 21.232 35.8695 21.4027V23.0215C35.8695 23.1922 35.7373 23.2121 35.6272 23.2121H35.5975V23.277C35.7164 23.2748 35.8915 23.2649 36.038 23.2649C36.1844 23.2649 36.3673 23.2759 36.5126 23.277Z" fill="#231F20"/>
<path d="M37.7593 21.0877C38.4178 21.0877 38.942 21.4952 38.942 22.1537C38.942 22.864 38.4321 23.3365 37.7747 23.3365C37.1172 23.3365 36.6195 22.8927 36.6195 22.2275C36.6195 21.5624 37.1161 21.0877 37.7582 21.0877M37.8044 23.201C38.4046 23.201 38.5081 22.6724 38.5081 22.222C38.5081 21.7716 38.2647 21.2243 37.7527 21.2243C37.2119 21.2243 37.0522 21.7055 37.0522 22.1196C37.0522 22.6724 37.3055 23.201 37.8055 23.201" fill="#231F20"/>
<path d="M36.6062 22.2275C36.6084 21.5778 37.1106 21.0756 37.7592 21.0734V21.1009C37.1238 21.1009 36.6316 21.5921 36.6316 22.2275C36.6316 22.8839 37.126 23.3222 37.7747 23.3233C38.4255 23.3233 38.9277 22.8574 38.9299 22.1537C38.9299 21.504 38.4123 21.102 37.7592 21.102V21.0745C38.4222 21.0756 38.9541 21.4875 38.9552 22.1537C38.9552 22.8718 38.4398 23.3497 37.7747 23.3508C37.1139 23.3497 36.6073 22.8993 36.6051 22.2286M37.0379 22.1196C37.0379 21.7044 37.202 21.2111 37.7526 21.2111C38.2779 21.2111 38.5224 21.7694 38.5224 22.2231C38.5224 22.6735 38.4156 23.2142 37.8044 23.2142V23.1878C38.3925 23.1878 38.4938 22.6724 38.496 22.222C38.496 21.7738 38.2548 21.2375 37.7526 21.2375C37.2229 21.2375 37.0654 21.7088 37.0654 22.1196C37.0654 22.6702 37.3165 23.1867 37.8055 23.1878V23.2142C37.2934 23.2142 37.039 22.6757 37.0379 22.1196Z" fill="#231F20"/>
<path d="M41.0245 22.6823L41.0311 22.6757V21.5172C41.0311 21.2639 40.8549 21.2276 40.7613 21.2276H40.6952V21.134C40.8395 21.134 40.9826 21.1461 41.1269 21.1461C41.2547 21.1461 41.3813 21.134 41.5068 21.134V21.2276H41.4606C41.3306 21.2276 41.1853 21.2518 41.1853 21.6196V23.0259C41.1853 23.1339 41.1886 23.2418 41.204 23.3376H41.0862L39.4959 21.5646V22.8365C39.4959 23.1063 39.5477 23.1977 39.7867 23.1977H39.8384V23.2913C39.7052 23.2913 39.573 23.2792 39.4398 23.2792C39.3065 23.2792 39.1579 23.2913 39.0191 23.2913V23.1977H39.0631C39.2768 23.1977 39.3407 23.0535 39.3407 22.8057V21.5051C39.3407 21.3322 39.1997 21.2276 39.0598 21.2276H39.0202V21.134C39.138 21.134 39.2581 21.1461 39.3759 21.1461C39.4684 21.1461 39.5576 21.134 39.6501 21.134L41.0256 22.6823H41.0245Z" fill="#231F20"/>
<path d="M41.2029 23.3508L41.0752 23.3464L39.5081 21.5998V22.8376C39.5114 23.1074 39.5532 23.1823 39.7845 23.1856H39.8517V23.3057H39.8384C39.7052 23.3057 39.5719 23.2936 39.4398 23.2936C39.3076 23.2936 39.159 23.3057 39.0191 23.3057H39.007V23.1856H39.0632C39.2669 23.1856 39.3253 23.0535 39.3275 22.8079V21.5073C39.3275 21.3421 39.1931 21.243 39.0599 21.243H39.007V21.1241H39.0191C39.138 21.1241 39.2581 21.1362 39.3748 21.1362C39.4662 21.1362 39.5554 21.1241 39.66 21.1285L41.0168 22.6559V21.5194C41.0168 21.2738 40.8527 21.2441 40.7613 21.2419H40.6809V21.123H40.6941C40.8395 21.123 40.9827 21.1351 41.1258 21.1351C41.2536 21.1351 41.378 21.123 41.5069 21.123H41.5201V21.2419H41.4606C41.334 21.2452 41.2018 21.2573 41.1996 21.6207V23.0271C41.1996 23.1339 41.2018 23.2418 41.2161 23.3365L41.2183 23.3519H41.2029V23.3508ZM41.0851 23.3233H41.1875C41.1743 23.2308 41.171 23.1273 41.171 23.0249V21.6185C41.171 21.2474 41.3274 21.2144 41.4595 21.2133H41.4925V21.1472C41.3703 21.1472 41.2481 21.1593 41.1247 21.1593C40.9849 21.1593 40.8472 21.1483 40.7062 21.1472V21.2133H40.7602C40.8571 21.2133 41.0432 21.2562 41.0432 21.5172L41.0399 22.6846L41.0344 22.6901L41.0245 22.7011L39.649 21.1472C39.5576 21.1472 39.4673 21.1593 39.3748 21.1593C39.2603 21.1593 39.1446 21.1483 39.0323 21.1472V21.2133H39.0587C39.2041 21.2133 39.3539 21.3234 39.3539 21.504V22.8046C39.3539 23.0524 39.2845 23.2099 39.0632 23.211H39.0334V23.2759C39.1678 23.2759 39.3043 23.2638 39.4409 23.2638C39.5697 23.2638 39.6986 23.2748 39.8263 23.2759V23.211H39.7867C39.5444 23.211 39.4838 23.1052 39.4838 22.8354V21.5282L41.0873 23.3222L41.0851 23.3233Z" fill="#231F20"/>
<path d="M42.0024 22.8486C41.9727 22.9533 41.9352 23.0348 41.9352 23.0898C41.9352 23.1823 42.0663 23.1977 42.1665 23.1977H42.2006V23.2902C42.0773 23.2836 41.9506 23.2781 41.8262 23.2781C41.7139 23.2781 41.6037 23.2836 41.4936 23.2902V23.1977H41.5101C41.6313 23.1977 41.7337 23.1273 41.78 22.9973L42.2744 21.58C42.3141 21.4655 42.3702 21.3113 42.3878 21.1956C42.487 21.1615 42.6103 21.1009 42.6687 21.0635C42.6786 21.0602 42.6841 21.058 42.694 21.058C42.7039 21.058 42.7083 21.058 42.7149 21.0668C42.7248 21.091 42.7336 21.1197 42.7436 21.1439L43.3118 22.7594C43.3481 22.8674 43.3867 22.9819 43.4263 23.0744C43.4627 23.1603 43.5288 23.1966 43.6301 23.1966H43.6488V23.2891C43.51 23.2825 43.3702 23.277 43.2226 23.277C43.075 23.277 42.9165 23.2825 42.759 23.2891V23.1966H42.7931C42.8636 23.1966 42.9847 23.1856 42.9847 23.1074C42.9847 23.0667 42.9561 22.9841 42.922 22.885L42.8019 22.5271H42.1015L42.0013 22.8486H42.0024ZM42.4539 21.4798H42.4473L42.1599 22.3542H42.7391L42.4539 21.4798Z" fill="#231F20"/>
<path d="M43.6488 23.3035C43.5101 23.298 43.3702 23.2914 43.2237 23.2914C43.0773 23.2914 42.9176 23.298 42.7601 23.3035H42.7469V23.2903V23.1845H42.7931C42.8647 23.1845 42.9715 23.168 42.9726 23.1086C42.9726 23.0733 42.9451 22.9885 42.9099 22.8905L42.7931 22.5414H42.1115L42.0167 22.8531C41.9859 22.9588 41.9485 23.0403 41.9496 23.0898C41.9496 23.1658 42.0652 23.1856 42.1676 23.1856H42.215V23.3057H42.2007C42.0773 23.2991 41.9507 23.2925 41.8284 23.2925C41.7172 23.2925 41.606 23.2991 41.4947 23.3046H41.4815V23.2914V23.1856H41.5124C41.6269 23.1845 41.7238 23.1185 41.769 22.9929L42.2634 21.5756C42.3031 21.4611 42.3581 21.3069 42.3857 21.1846C42.4826 21.1505 42.607 21.0888 42.6665 21.0514C42.6742 21.0481 42.6841 21.0448 42.6962 21.0448C42.7039 21.0448 42.7204 21.0459 42.7304 21.0635C42.7392 21.0877 42.748 21.1153 42.7579 21.1406L43.3261 22.7561C43.3625 22.8641 43.3999 22.9786 43.4407 23.07C43.477 23.1526 43.5321 23.1845 43.6323 23.1856H43.6642V23.3057H43.651L43.6488 23.3035ZM42.7733 23.2748C42.9253 23.2693 43.0762 23.2638 43.2237 23.2638C43.3713 23.2638 43.5012 23.2704 43.6356 23.2748V23.211H43.6312C43.5266 23.211 43.4528 23.1691 43.4153 23.0788C43.3735 22.9852 43.3372 22.8707 43.3008 22.7628L42.7326 21.1472C42.7238 21.1219 42.7127 21.0943 42.7061 21.0734C42.7061 21.0734 42.7047 21.0719 42.7017 21.069H42.6962C42.6896 21.069 42.6863 21.0712 42.6786 21.0734C42.6191 21.1109 42.4958 21.1736 42.4033 21.1968C42.3846 21.3146 42.3284 21.4677 42.2888 21.5822L41.7943 23.0006C41.7469 23.135 41.6401 23.211 41.5124 23.211H41.5069V23.2748C41.6137 23.2704 41.7205 23.2638 41.8284 23.2638C41.9474 23.2638 42.0696 23.2704 42.1896 23.2748V23.211H42.1676C42.0674 23.2099 41.9264 23.1989 41.9231 23.0887C41.9231 23.0282 41.9617 22.9489 41.9925 22.8442L42.0046 22.8476L41.9925 22.8431L42.0938 22.5128H42.8152L42.9385 22.8795C42.9726 22.9786 43.0002 23.0612 43.0002 23.1063C42.9958 23.2011 42.8658 23.2077 42.7953 23.2099H42.7755V23.2748H42.7733ZM42.1412 22.3663L42.4385 21.4666H42.4528H42.4628L42.7546 22.3663H42.1401H42.1412ZM42.1786 22.3399H42.7194L42.4495 21.5128L42.1786 22.3399Z" fill="#231F20"/>
<path d="M44.4285 22.9874C44.4285 23.1107 44.5144 23.1482 44.6135 23.1603C44.7402 23.1702 44.8789 23.1702 45.0221 23.1537C45.1509 23.1383 45.2633 23.0645 45.3183 22.9863C45.3679 22.918 45.3943 22.8321 45.4141 22.7638H45.5033C45.4692 22.94 45.4251 23.1129 45.3888 23.2891C45.1168 23.2891 44.8448 23.277 44.5739 23.277C44.303 23.277 44.0298 23.2891 43.7578 23.2891V23.1955H43.8008C43.9131 23.1955 44.0331 23.1812 44.0331 22.9885V21.4016C44.0331 21.2408 43.9131 21.2254 43.8008 21.2254H43.7578V21.1318C43.9219 21.1318 44.0827 21.1439 44.2457 21.1439C44.4087 21.1439 44.5584 21.1318 44.7159 21.1318V21.2254H44.6377C44.521 21.2254 44.4285 21.2287 44.4285 21.3928V22.9863V22.9874Z" fill="#231F20"/>
<path d="M45.3877 23.3035C45.1157 23.3035 44.8437 23.2913 44.5728 23.2913C44.3019 23.2913 44.0287 23.3035 43.7556 23.3035H43.7435V23.1845H43.7997C43.912 23.1823 44.0177 23.1735 44.0188 22.9896V21.4016C44.0188 21.2518 43.912 21.2408 43.7997 21.2386H43.7435V21.1197H43.7556C43.9197 21.1197 44.0805 21.1318 44.2446 21.1318C44.4087 21.1318 44.5562 21.1197 44.7148 21.1197H44.7269V21.2386H44.6366C44.5166 21.2419 44.4417 21.2364 44.4395 21.3928V22.9863C44.4406 23.1008 44.5155 23.1317 44.6135 23.146C44.6675 23.1493 44.7247 23.1515 44.7842 23.1515C44.8591 23.1515 44.9384 23.1482 45.0188 23.1394C45.1443 23.124 45.2522 23.0524 45.3062 22.9786C45.3536 22.9125 45.3811 22.8277 45.3987 22.7605L45.402 22.7495H45.5187L45.5154 22.766C45.4813 22.9422 45.4384 23.1151 45.4009 23.2913L45.3976 23.3013H45.3877V23.3035ZM45.3767 23.277C45.4119 23.1096 45.4527 22.9456 45.4857 22.7782H45.4218C45.4031 22.8464 45.3756 22.929 45.3271 22.9962C45.2699 23.0766 45.1553 23.1515 45.021 23.168C44.9395 23.1768 44.8602 23.1801 44.7842 23.1801C44.7247 23.1801 44.6653 23.1779 44.6102 23.1735C44.51 23.1625 44.4131 23.1196 44.4142 22.9874V21.3939C44.4142 21.2221 44.5221 21.2133 44.6377 21.2133H44.7016V21.1472C44.5496 21.1472 44.3988 21.1593 44.2457 21.1593C44.0926 21.1593 43.9285 21.1483 43.771 21.1472V21.2133H43.8008C43.9109 21.2133 44.0464 21.232 44.0464 21.4027V22.9907C44.0464 23.1911 43.912 23.2121 43.8008 23.2121H43.771V23.277C44.0376 23.277 44.3052 23.2649 44.5739 23.2649C44.8426 23.2649 45.1102 23.2759 45.3778 23.277" fill="#231F20"/>
<path d="M45.4648 21.047C45.6509 21.047 45.7897 21.1901 45.7897 21.373C45.7897 21.5558 45.6509 21.6967 45.4648 21.6967C45.2787 21.6967 45.1388 21.5547 45.1388 21.373C45.1388 21.1912 45.2787 21.047 45.4648 21.047ZM45.4648 21.6362C45.6101 21.6362 45.7225 21.5128 45.7225 21.373C45.7225 21.2331 45.6124 21.1076 45.4648 21.1076C45.3172 21.1076 45.2071 21.2331 45.2071 21.373C45.2071 21.5128 45.3183 21.6362 45.4648 21.6362ZM45.3029 21.5437V21.5271C45.3425 21.5216 45.3502 21.5238 45.3502 21.4974V21.2573C45.3502 21.2232 45.3469 21.2111 45.304 21.2133V21.1968H45.4714C45.5276 21.1968 45.5804 21.2243 45.5804 21.2838C45.5804 21.3322 45.5485 21.3674 45.5033 21.3818L45.5562 21.4567C45.5815 21.4897 45.6101 21.5216 45.6289 21.5326V21.5437H45.565C45.5353 21.5437 45.5088 21.4787 45.4483 21.3939H45.413V21.5018C45.413 21.5238 45.4207 21.5216 45.4604 21.5271V21.5437H45.304H45.3029ZM45.413 21.3719H45.4516C45.4934 21.3719 45.5132 21.3399 45.5132 21.2893C45.5132 21.2386 45.4824 21.2199 45.4494 21.2199H45.4141V21.373L45.413 21.3719Z" fill="#231F20"/>
<path d="M10.7101 25.0357C7.72343 25.0501 5.26541 22.6306 5.26541 19.6858C5.26541 16.4679 7.72343 14.2412 10.7101 14.2423H12.1098C15.06 14.2423 17.7537 16.4668 17.7537 19.6869C17.7537 22.6306 15.06 25.0368 12.1098 25.0368H10.7101V25.0357ZM10.7222 14.6872C7.99324 14.6872 5.7819 16.8996 5.7819 19.6285C5.7819 22.3575 7.99324 24.5688 10.7222 24.5688C13.4511 24.5688 15.6624 22.3575 15.6635 19.6285C15.6635 16.8996 13.4511 14.6883 10.7222 14.6872ZM9.59998 22.5502V16.7069C8.42603 17.1595 7.59348 18.296 7.59018 19.6296C7.59348 20.9633 8.42603 22.0998 9.59998 22.5513M13.8542 19.6296C13.852 18.2949 13.0183 17.1573 11.8422 16.7069V22.5535C13.0172 22.102 13.852 20.9655 13.8542 19.6307" fill="#0D4E96"/>
</g>
<defs>
<clipPath id="clip0_401_104">
<rect width="41" height="11.3298" fill="white" transform="translate(5 14)"/>
</clipPath>
</defs>
</svg>
